# xmcd
# Track frame offsets:
# 150
# 15523
# 31631
# 48505
# 61786
# 77602
# 92315
# 108213
# 121982
# 133433
# 146976
# 161861
# 177767
# 190883
# 203204
# 219214
# 236778
# 252188
# 268153
#
# Disc length: 3930 seconds
# Revision: 0
# Processed by: cddbd v1.5.2PL0 Copyright (c) Steve Scherf et al.
# Submitted via: VisiTrax 2.11.3.279 - For more info visit www.synapsa.com
#
DISCID=060f5813
DTITLE=Various Artist - Bass Power 5 CD1
DYEAR=2012
DGENRE=Trance
TTITLE0=ItaloBrothers - Cryin' In The Rain
TTITLE1=Other Ego - Born This Way
TTITLE2=Club Madness - Party Rock Anthem
TTITLE3=Svenstrup and Vendelboe - Dybt Vand (feat. Nadia Malm)
TTITLE4=Bohème - Infinity
TTITLE5=Candid - Beautiful People
TTITLE6=Basslovers United - Forever Is Over
TTITLE7=Bohème - Call On Me
TTITLE8=KE Project - Double Up
TTITLE9=BassLab - Make The World Spin Around
TTITLE10=ItaloBrothers - Counting Down The Days
TTITLE11=Wand 17 - Sweat
TTITLE12=Sound Box - No No No (feat. Nadia Nouamani)
TTITLE13=Danny Klark - Overdrive
TTITLE14=Jason Born - More
TTITLE15=Darius and Finlay - Till Morning (feat. Nicco)
TTITLE16=Mick Lion - Hello
TTITLE17=Jason Born - Give Me Everything (Tonight)
TTITLE18=Ron Rockwell - Forever Loved
EXTD=
EXTT0=
EXTT1=
EXTT2=
EXTT3=
EXTT4=
EXTT5=
EXTT6=
EXTT7=
EXTT8=
EXTT9=
EXTT10=
EXTT11=
EXTT12=
EXTT13=
EXTT14=
EXTT15=
EXTT16=
EXTT17=
EXTT18=
PLAYORDER=
